# xmcd CD database file
#
# Track frame offsets:
#	150
#	37946
#	69026
#	105825
#	133349
#	171610
#	202579
#	232424
#
# Disc length: 3426 seconds
#
# Revision: 0
# Processed by: cddbd v1.5.2PL0 Copyright (c) Steve Scherf et al.
# Submitted via: CDex 1.70beta2
#
DISCID=660d6008
DTITLE=Wayne Shorter - Blue Note Legends
DYEAR=2008
DGENRE=Jazz
TTITLE0=Wayne Shorter - Speak No Evil (Rudy Van Gelder 24Bit Mastering) (1999 Digital Remaster)
TTITLE1=Wayne Shorter - Infant Eyes (Rudy Van Gelder 24Bit Mastering) (1999 Digital Remaster)
TTITLE2=Wayne Shorter - Witch Hunt (Rudy Van Gelder 24Bit Mastering) (1999 Digital Remaster)
TTITLE3=Wayne Shorter - Wild Flower (Rudy Van Gelder 24Bit Mastering) (1999 Digital Remaster)
TTITLE4=Wayne Shorter - Juju (Rudy Van Gelder 24Bit Mastering) (1999 Digital Remaster)
TTITLE5=Wayne Shorter - House Of Jade (Rudy Van Gelder 24Bit Mastering) (1999 Digital Remaster)
TTITLE6=Wayne Shorter - Yes Or No (Rudy Van Gelder 24Bit Mastering) (1999 Digital Remaster)
TTITLE7=Wayne Shorter - Twelve More Bars To Go (Rudy Van Gelder 24Bit Mastering) (1999 Digital Remaster)
EXTD=YEAR: 2008
EXTT0=
EXTT1=
EXTT2=
EXTT3=
EXTT4=
EXTT5=
EXTT6=
EXTT7=
PLAYORDER=
